<mxfile host="app.diagrams.net" modified="2021-07-21T07:42:28.683Z" agent="5.0 (Macintosh; Intel Mac OS X 11_1_0) AppleWebKit/537.36 (KHTML, like Gecko) Chrome/87.0.4280.88 Safari/537.36" etag="o6UOkEKmTNVvft0zD2Ji" version="14.9.0" type="github" pages="3">
  <diagram id="C5RBs43oDa-KdzZeNtuy" name="E-R图草稿">
    <mxGraphModel dx="1298" dy="834" grid="1" gridSize="10" guides="1" tooltips="1" connect="1" arrows="1" fold="1" page="1" pageScale="1" pageWidth="3300" pageHeight="4681" math="0" shadow="0">
      <root>
        <mxCell id="WIyWlLk6GJQsqaUBKTNV-0" />
        <mxCell id="WIyWlLk6GJQsqaUBKTNV-1" parent="WIyWlLk6GJQsqaUBKTNV-0" />
        <mxCell id="J2h3QIVS43zX6quAM4K0-0" style="edgeStyle=orthogonalEdgeStyle;rounded=0;orthogonalLoop=1;jettySize=auto;html=1;exitX=1;exitY=0.5;exitDx=0;exitDy=0;" edge="1" parent="WIyWlLk6GJQsqaUBKTNV-1" source="WIyWlLk6GJQsqaUBKTNV-3" target="WIyWlLk6GJQsqaUBKTNV-6">
          <mxGeometry relative="1" as="geometry" />
        </mxCell>
        <mxCell id="J2h3QIVS43zX6quAM4K0-37" style="edgeStyle=orthogonalEdgeStyle;rounded=0;orthogonalLoop=1;jettySize=auto;html=1;exitX=0.5;exitY=1;exitDx=0;exitDy=0;entryX=0.5;entryY=1;entryDx=0;entryDy=0;" edge="1" parent="WIyWlLk6GJQsqaUBKTNV-1" source="WIyWlLk6GJQsqaUBKTNV-3" target="J2h3QIVS43zX6quAM4K0-34">
          <mxGeometry relative="1" as="geometry" />
        </mxCell>
        <mxCell id="WIyWlLk6GJQsqaUBKTNV-3" value="用户" style="rounded=1;whiteSpace=wrap;html=1;fontSize=12;glass=0;strokeWidth=1;shadow=0;" parent="WIyWlLk6GJQsqaUBKTNV-1" vertex="1">
          <mxGeometry x="30" y="110" width="120" height="40" as="geometry" />
        </mxCell>
        <mxCell id="J2h3QIVS43zX6quAM4K0-29" style="edgeStyle=orthogonalEdgeStyle;rounded=0;orthogonalLoop=1;jettySize=auto;html=1;exitX=1;exitY=0.5;exitDx=0;exitDy=0;entryX=0;entryY=0.5;entryDx=0;entryDy=0;" edge="1" parent="WIyWlLk6GJQsqaUBKTNV-1" source="WIyWlLk6GJQsqaUBKTNV-6" target="J2h3QIVS43zX6quAM4K0-26">
          <mxGeometry relative="1" as="geometry" />
        </mxCell>
        <mxCell id="WIyWlLk6GJQsqaUBKTNV-6" value="进入" style="rhombus;whiteSpace=wrap;html=1;shadow=0;fontFamily=Helvetica;fontSize=12;align=center;strokeWidth=1;spacing=6;spacingTop=-4;" parent="WIyWlLk6GJQsqaUBKTNV-1" vertex="1">
          <mxGeometry x="190" y="95" width="100" height="70" as="geometry" />
        </mxCell>
        <mxCell id="J2h3QIVS43zX6quAM4K0-8" style="edgeStyle=orthogonalEdgeStyle;rounded=0;orthogonalLoop=1;jettySize=auto;html=1;" edge="1" parent="WIyWlLk6GJQsqaUBKTNV-1" target="J2h3QIVS43zX6quAM4K0-2">
          <mxGeometry relative="1" as="geometry">
            <mxPoint x="290" y="130" as="sourcePoint" />
          </mxGeometry>
        </mxCell>
        <mxCell id="J2h3QIVS43zX6quAM4K0-9" style="edgeStyle=orthogonalEdgeStyle;rounded=0;orthogonalLoop=1;jettySize=auto;html=1;entryX=0;entryY=0.5;entryDx=0;entryDy=0;" edge="1" parent="WIyWlLk6GJQsqaUBKTNV-1" target="J2h3QIVS43zX6quAM4K0-3">
          <mxGeometry relative="1" as="geometry">
            <mxPoint x="290" y="130" as="sourcePoint" />
          </mxGeometry>
        </mxCell>
        <mxCell id="J2h3QIVS43zX6quAM4K0-10" style="edgeStyle=orthogonalEdgeStyle;rounded=0;orthogonalLoop=1;jettySize=auto;html=1;entryX=0;entryY=0.5;entryDx=0;entryDy=0;" edge="1" parent="WIyWlLk6GJQsqaUBKTNV-1" target="WIyWlLk6GJQsqaUBKTNV-10">
          <mxGeometry relative="1" as="geometry">
            <mxPoint x="290" y="130" as="sourcePoint" />
          </mxGeometry>
        </mxCell>
        <mxCell id="J2h3QIVS43zX6quAM4K0-18" style="edgeStyle=orthogonalEdgeStyle;rounded=0;orthogonalLoop=1;jettySize=auto;html=1;entryX=0;entryY=0.5;entryDx=0;entryDy=0;" edge="1" parent="WIyWlLk6GJQsqaUBKTNV-1" target="J2h3QIVS43zX6quAM4K0-4">
          <mxGeometry relative="1" as="geometry">
            <mxPoint x="290" y="130" as="sourcePoint" />
          </mxGeometry>
        </mxCell>
        <mxCell id="J2h3QIVS43zX6quAM4K0-22" style="edgeStyle=orthogonalEdgeStyle;rounded=0;orthogonalLoop=1;jettySize=auto;html=1;exitX=1;exitY=0.5;exitDx=0;exitDy=0;" edge="1" parent="WIyWlLk6GJQsqaUBKTNV-1" source="WIyWlLk6GJQsqaUBKTNV-10" target="J2h3QIVS43zX6quAM4K0-21">
          <mxGeometry relative="1" as="geometry" />
        </mxCell>
        <mxCell id="WIyWlLk6GJQsqaUBKTNV-10" value="关注" style="rhombus;whiteSpace=wrap;html=1;shadow=0;fontFamily=Helvetica;fontSize=12;align=center;strokeWidth=1;spacing=6;spacingTop=-4;" parent="WIyWlLk6GJQsqaUBKTNV-1" vertex="1">
          <mxGeometry x="330" y="60" width="90" height="40" as="geometry" />
        </mxCell>
        <mxCell id="J2h3QIVS43zX6quAM4K0-49" style="edgeStyle=orthogonalEdgeStyle;rounded=0;orthogonalLoop=1;jettySize=auto;html=1;exitX=1;exitY=0.5;exitDx=0;exitDy=0;entryX=0;entryY=0.5;entryDx=0;entryDy=0;" edge="1" parent="WIyWlLk6GJQsqaUBKTNV-1" source="WIyWlLk6GJQsqaUBKTNV-11" target="J2h3QIVS43zX6quAM4K0-48">
          <mxGeometry relative="1" as="geometry" />
        </mxCell>
        <mxCell id="WIyWlLk6GJQsqaUBKTNV-11" value="主播" style="rounded=1;whiteSpace=wrap;html=1;fontSize=12;glass=0;strokeWidth=1;shadow=0;" parent="WIyWlLk6GJQsqaUBKTNV-1" vertex="1">
          <mxGeometry x="30" y="530" width="110" height="40" as="geometry" />
        </mxCell>
        <mxCell id="J2h3QIVS43zX6quAM4K0-35" style="edgeStyle=orthogonalEdgeStyle;rounded=0;orthogonalLoop=1;jettySize=auto;html=1;exitX=1;exitY=0.5;exitDx=0;exitDy=0;entryX=0;entryY=0.5;entryDx=0;entryDy=0;" edge="1" parent="WIyWlLk6GJQsqaUBKTNV-1" source="WIyWlLk6GJQsqaUBKTNV-12" target="J2h3QIVS43zX6quAM4K0-34">
          <mxGeometry relative="1" as="geometry" />
        </mxCell>
        <mxCell id="WIyWlLk6GJQsqaUBKTNV-12" value="宝贝口袋" style="rounded=1;whiteSpace=wrap;html=1;fontSize=12;glass=0;strokeWidth=1;shadow=0;" parent="WIyWlLk6GJQsqaUBKTNV-1" vertex="1">
          <mxGeometry x="470" y="300" width="60" height="40" as="geometry" />
        </mxCell>
        <mxCell id="J2h3QIVS43zX6quAM4K0-24" style="edgeStyle=orthogonalEdgeStyle;rounded=0;orthogonalLoop=1;jettySize=auto;html=1;exitX=1;exitY=0.5;exitDx=0;exitDy=0;entryX=0;entryY=0.5;entryDx=0;entryDy=0;" edge="1" parent="WIyWlLk6GJQsqaUBKTNV-1" source="J2h3QIVS43zX6quAM4K0-2" target="J2h3QIVS43zX6quAM4K0-21">
          <mxGeometry relative="1" as="geometry" />
        </mxCell>
        <mxCell id="J2h3QIVS43zX6quAM4K0-2" value="点赞" style="rhombus;whiteSpace=wrap;html=1;shadow=0;fontFamily=Helvetica;fontSize=12;align=center;strokeWidth=1;spacing=6;spacingTop=-4;" vertex="1" parent="WIyWlLk6GJQsqaUBKTNV-1">
          <mxGeometry x="330" y="110" width="90" height="40" as="geometry" />
        </mxCell>
        <mxCell id="J2h3QIVS43zX6quAM4K0-25" style="edgeStyle=orthogonalEdgeStyle;rounded=0;orthogonalLoop=1;jettySize=auto;html=1;exitX=1;exitY=0.5;exitDx=0;exitDy=0;entryX=0.5;entryY=1;entryDx=0;entryDy=0;" edge="1" parent="WIyWlLk6GJQsqaUBKTNV-1" source="J2h3QIVS43zX6quAM4K0-3" target="J2h3QIVS43zX6quAM4K0-21">
          <mxGeometry relative="1" as="geometry" />
        </mxCell>
        <mxCell id="J2h3QIVS43zX6quAM4K0-3" value="弹幕" style="rhombus;whiteSpace=wrap;html=1;shadow=0;fontFamily=Helvetica;fontSize=12;align=center;strokeWidth=1;spacing=6;spacingTop=-4;" vertex="1" parent="WIyWlLk6GJQsqaUBKTNV-1">
          <mxGeometry x="330" y="160" width="90" height="40" as="geometry" />
        </mxCell>
        <mxCell id="J2h3QIVS43zX6quAM4K0-20" style="edgeStyle=orthogonalEdgeStyle;rounded=0;orthogonalLoop=1;jettySize=auto;html=1;entryX=0;entryY=0.5;entryDx=0;entryDy=0;" edge="1" parent="WIyWlLk6GJQsqaUBKTNV-1" source="J2h3QIVS43zX6quAM4K0-4" target="J2h3QIVS43zX6quAM4K0-19">
          <mxGeometry relative="1" as="geometry" />
        </mxCell>
        <mxCell id="J2h3QIVS43zX6quAM4K0-4" value="领取" style="rhombus;whiteSpace=wrap;html=1;shadow=0;fontFamily=Helvetica;fontSize=12;align=center;strokeWidth=1;spacing=6;spacingTop=-4;" vertex="1" parent="WIyWlLk6GJQsqaUBKTNV-1">
          <mxGeometry x="330" y="230" width="90" height="40" as="geometry" />
        </mxCell>
        <mxCell id="J2h3QIVS43zX6quAM4K0-39" style="edgeStyle=orthogonalEdgeStyle;rounded=0;orthogonalLoop=1;jettySize=auto;html=1;exitX=1;exitY=0.5;exitDx=0;exitDy=0;entryX=0.111;entryY=0.5;entryDx=0;entryDy=0;entryPerimeter=0;" edge="1" parent="WIyWlLk6GJQsqaUBKTNV-1" source="J2h3QIVS43zX6quAM4K0-13" target="J2h3QIVS43zX6quAM4K0-38">
          <mxGeometry relative="1" as="geometry" />
        </mxCell>
        <mxCell id="J2h3QIVS43zX6quAM4K0-43" style="edgeStyle=orthogonalEdgeStyle;rounded=0;orthogonalLoop=1;jettySize=auto;html=1;exitX=0.5;exitY=0;exitDx=0;exitDy=0;entryX=0.5;entryY=0;entryDx=0;entryDy=0;" edge="1" parent="WIyWlLk6GJQsqaUBKTNV-1" source="J2h3QIVS43zX6quAM4K0-13" target="J2h3QIVS43zX6quAM4K0-15">
          <mxGeometry relative="1" as="geometry" />
        </mxCell>
        <mxCell id="J2h3QIVS43zX6quAM4K0-13" value="商品" style="rounded=1;whiteSpace=wrap;html=1;fontSize=12;glass=0;strokeWidth=1;shadow=0;" vertex="1" parent="WIyWlLk6GJQsqaUBKTNV-1">
          <mxGeometry x="700" y="110" width="60" height="40" as="geometry" />
        </mxCell>
        <mxCell id="J2h3QIVS43zX6quAM4K0-41" style="edgeStyle=orthogonalEdgeStyle;rounded=0;orthogonalLoop=1;jettySize=auto;html=1;exitX=1;exitY=0.5;exitDx=0;exitDy=0;entryX=0;entryY=0.5;entryDx=0;entryDy=0;" edge="1" parent="WIyWlLk6GJQsqaUBKTNV-1" source="J2h3QIVS43zX6quAM4K0-14" target="J2h3QIVS43zX6quAM4K0-15">
          <mxGeometry relative="1" as="geometry" />
        </mxCell>
        <mxCell id="J2h3QIVS43zX6quAM4K0-14" value="购物车" style="rounded=1;whiteSpace=wrap;html=1;fontSize=12;glass=0;strokeWidth=1;shadow=0;" vertex="1" parent="WIyWlLk6GJQsqaUBKTNV-1">
          <mxGeometry x="940" y="110" width="60" height="40" as="geometry" />
        </mxCell>
        <mxCell id="J2h3QIVS43zX6quAM4K0-42" style="edgeStyle=orthogonalEdgeStyle;rounded=0;orthogonalLoop=1;jettySize=auto;html=1;exitX=1;exitY=0.5;exitDx=0;exitDy=0;entryX=0;entryY=0.5;entryDx=0;entryDy=0;" edge="1" parent="WIyWlLk6GJQsqaUBKTNV-1" source="J2h3QIVS43zX6quAM4K0-15" target="J2h3QIVS43zX6quAM4K0-31">
          <mxGeometry relative="1" as="geometry" />
        </mxCell>
        <mxCell id="J2h3QIVS43zX6quAM4K0-15" value="结算" style="rhombus;whiteSpace=wrap;html=1;shadow=0;fontFamily=Helvetica;fontSize=12;align=center;strokeWidth=1;spacing=6;spacingTop=-4;" vertex="1" parent="WIyWlLk6GJQsqaUBKTNV-1">
          <mxGeometry x="1040" y="110" width="90" height="40" as="geometry" />
        </mxCell>
        <mxCell id="J2h3QIVS43zX6quAM4K0-46" style="edgeStyle=orthogonalEdgeStyle;rounded=0;orthogonalLoop=1;jettySize=auto;html=1;exitX=1;exitY=0.5;exitDx=0;exitDy=0;" edge="1" parent="WIyWlLk6GJQsqaUBKTNV-1" source="J2h3QIVS43zX6quAM4K0-19" target="J2h3QIVS43zX6quAM4K0-44">
          <mxGeometry relative="1" as="geometry" />
        </mxCell>
        <mxCell id="J2h3QIVS43zX6quAM4K0-19" value="权益" style="rounded=1;whiteSpace=wrap;html=1;fontSize=12;glass=0;strokeWidth=1;shadow=0;" vertex="1" parent="WIyWlLk6GJQsqaUBKTNV-1">
          <mxGeometry x="470" y="230" width="60" height="40" as="geometry" />
        </mxCell>
        <mxCell id="J2h3QIVS43zX6quAM4K0-21" value="直播间" style="rounded=1;whiteSpace=wrap;html=1;fontSize=12;glass=0;strokeWidth=1;shadow=0;" vertex="1" parent="WIyWlLk6GJQsqaUBKTNV-1">
          <mxGeometry x="490" y="110" width="120" height="40" as="geometry" />
        </mxCell>
        <mxCell id="J2h3QIVS43zX6quAM4K0-27" style="edgeStyle=orthogonalEdgeStyle;rounded=0;orthogonalLoop=1;jettySize=auto;html=1;entryX=0;entryY=0.5;entryDx=0;entryDy=0;" edge="1" parent="WIyWlLk6GJQsqaUBKTNV-1" source="J2h3QIVS43zX6quAM4K0-26" target="WIyWlLk6GJQsqaUBKTNV-12">
          <mxGeometry relative="1" as="geometry" />
        </mxCell>
        <mxCell id="J2h3QIVS43zX6quAM4K0-26" value="拉起" style="rhombus;whiteSpace=wrap;html=1;shadow=0;fontFamily=Helvetica;fontSize=12;align=center;strokeWidth=1;spacing=6;spacingTop=-4;" vertex="1" parent="WIyWlLk6GJQsqaUBKTNV-1">
          <mxGeometry x="330" y="300" width="90" height="40" as="geometry" />
        </mxCell>
        <mxCell id="J2h3QIVS43zX6quAM4K0-31" value="订单" style="rounded=1;whiteSpace=wrap;html=1;fontSize=12;glass=0;strokeWidth=1;shadow=0;" vertex="1" parent="WIyWlLk6GJQsqaUBKTNV-1">
          <mxGeometry x="1170" y="110" width="60" height="40" as="geometry" />
        </mxCell>
        <mxCell id="J2h3QIVS43zX6quAM4K0-33" value="场次素材" style="rounded=1;whiteSpace=wrap;html=1;fontSize=12;glass=0;strokeWidth=1;shadow=0;" vertex="1" parent="WIyWlLk6GJQsqaUBKTNV-1">
          <mxGeometry x="380" y="530" width="110" height="40" as="geometry" />
        </mxCell>
        <mxCell id="J2h3QIVS43zX6quAM4K0-36" style="edgeStyle=orthogonalEdgeStyle;rounded=0;orthogonalLoop=1;jettySize=auto;html=1;exitX=1;exitY=0.5;exitDx=0;exitDy=0;entryX=0.5;entryY=1;entryDx=0;entryDy=0;" edge="1" parent="WIyWlLk6GJQsqaUBKTNV-1" source="J2h3QIVS43zX6quAM4K0-34" target="J2h3QIVS43zX6quAM4K0-13">
          <mxGeometry relative="1" as="geometry" />
        </mxCell>
        <mxCell id="J2h3QIVS43zX6quAM4K0-34" value="浏览" style="rhombus;whiteSpace=wrap;html=1;shadow=0;fontFamily=Helvetica;fontSize=12;align=center;strokeWidth=1;spacing=6;spacingTop=-4;" vertex="1" parent="WIyWlLk6GJQsqaUBKTNV-1">
          <mxGeometry x="610" y="300" width="90" height="40" as="geometry" />
        </mxCell>
        <mxCell id="J2h3QIVS43zX6quAM4K0-40" style="edgeStyle=orthogonalEdgeStyle;rounded=0;orthogonalLoop=1;jettySize=auto;html=1;exitX=1;exitY=0.5;exitDx=0;exitDy=0;entryX=0;entryY=0.5;entryDx=0;entryDy=0;" edge="1" parent="WIyWlLk6GJQsqaUBKTNV-1" source="J2h3QIVS43zX6quAM4K0-38" target="J2h3QIVS43zX6quAM4K0-14">
          <mxGeometry relative="1" as="geometry" />
        </mxCell>
        <mxCell id="J2h3QIVS43zX6quAM4K0-38" value="加购" style="rhombus;whiteSpace=wrap;html=1;shadow=0;fontFamily=Helvetica;fontSize=12;align=center;strokeWidth=1;spacing=6;spacingTop=-4;" vertex="1" parent="WIyWlLk6GJQsqaUBKTNV-1">
          <mxGeometry x="800" y="110" width="90" height="40" as="geometry" />
        </mxCell>
        <mxCell id="J2h3QIVS43zX6quAM4K0-47" style="edgeStyle=orthogonalEdgeStyle;rounded=0;orthogonalLoop=1;jettySize=auto;html=1;exitX=1;exitY=0.5;exitDx=0;exitDy=0;entryX=0.5;entryY=1;entryDx=0;entryDy=0;" edge="1" parent="WIyWlLk6GJQsqaUBKTNV-1" source="J2h3QIVS43zX6quAM4K0-44" target="J2h3QIVS43zX6quAM4K0-31">
          <mxGeometry relative="1" as="geometry" />
        </mxCell>
        <mxCell id="J2h3QIVS43zX6quAM4K0-44" value="核销" style="rhombus;whiteSpace=wrap;html=1;shadow=0;fontFamily=Helvetica;fontSize=12;align=center;strokeWidth=1;spacing=6;spacingTop=-4;" vertex="1" parent="WIyWlLk6GJQsqaUBKTNV-1">
          <mxGeometry x="870" y="230" width="90" height="40" as="geometry" />
        </mxCell>
        <mxCell id="J2h3QIVS43zX6quAM4K0-50" style="edgeStyle=orthogonalEdgeStyle;rounded=0;orthogonalLoop=1;jettySize=auto;html=1;exitX=1;exitY=0.5;exitDx=0;exitDy=0;entryX=0;entryY=0.5;entryDx=0;entryDy=0;" edge="1" parent="WIyWlLk6GJQsqaUBKTNV-1" source="J2h3QIVS43zX6quAM4K0-48" target="J2h3QIVS43zX6quAM4K0-33">
          <mxGeometry relative="1" as="geometry" />
        </mxCell>
        <mxCell id="J2h3QIVS43zX6quAM4K0-48" value="发布" style="rhombus;whiteSpace=wrap;html=1;shadow=0;fontFamily=Helvetica;fontSize=12;align=center;strokeWidth=1;spacing=6;spacingTop=-4;" vertex="1" parent="WIyWlLk6GJQsqaUBKTNV-1">
          <mxGeometry x="210" y="530" width="90" height="40" as="geometry" />
        </mxCell>
        <mxCell id="J2h3QIVS43zX6quAM4K0-52" value="选品" style="rhombus;whiteSpace=wrap;html=1;shadow=0;fontFamily=Helvetica;fontSize=12;align=center;strokeWidth=1;spacing=6;spacingTop=-4;" vertex="1" parent="WIyWlLk6GJQsqaUBKTNV-1">
          <mxGeometry x="210" y="610" width="90" height="40" as="geometry" />
        </mxCell>
        <mxCell id="J2h3QIVS43zX6quAM4K0-53" value="发货" style="rhombus;whiteSpace=wrap;html=1;shadow=0;fontFamily=Helvetica;fontSize=12;align=center;strokeWidth=1;spacing=6;spacingTop=-4;" vertex="1" parent="WIyWlLk6GJQsqaUBKTNV-1">
          <mxGeometry x="210" y="460" width="90" height="40" as="geometry" />
        </mxCell>
        <mxCell id="J2h3QIVS43zX6quAM4K0-54" value="结算" style="rhombus;whiteSpace=wrap;html=1;shadow=0;fontFamily=Helvetica;fontSize=12;align=center;strokeWidth=1;spacing=6;spacingTop=-4;" vertex="1" parent="WIyWlLk6GJQsqaUBKTNV-1">
          <mxGeometry x="210" y="680" width="90" height="40" as="geometry" />
        </mxCell>
      </root>
    </mxGraphModel>
  </diagram>
  <diagram id="M0-B0RxM3oX5VEPghpzq" name="直播下现有数据加购">
    <mxGraphModel dx="1298" dy="834" grid="1" gridSize="10" guides="1" tooltips="1" connect="1" arrows="1" fold="1" page="1" pageScale="1" pageWidth="3300" pageHeight="4681" math="0" shadow="0">
      <root>
        <mxCell id="8Lq890nxflDl5q64bQyd-0" />
        <mxCell id="8Lq890nxflDl5q64bQyd-1" parent="8Lq890nxflDl5q64bQyd-0" />
      </root>
    </mxGraphModel>
  </diagram>
  <diagram id="5HJBeioeq4b9n0a1lYAc" name="重要业务流程梳理-草稿">
    <mxGraphModel dx="1298" dy="834" grid="1" gridSize="10" guides="1" tooltips="1" connect="1" arrows="1" fold="1" page="1" pageScale="1" pageWidth="3300" pageHeight="4681" math="0" shadow="0">
      <root>
        <mxCell id="IR0gkQAS8w7b89UPamRY-0" />
        <mxCell id="IR0gkQAS8w7b89UPamRY-1" parent="IR0gkQAS8w7b89UPamRY-0" />
        <mxCell id="hEQg4mZG3wjf39rhhjz0-0" style="edgeStyle=orthogonalEdgeStyle;rounded=0;orthogonalLoop=1;jettySize=auto;html=1;exitX=1;exitY=0.5;exitDx=0;exitDy=0;" edge="1" parent="IR0gkQAS8w7b89UPamRY-1" source="hEQg4mZG3wjf39rhhjz0-2" target="hEQg4mZG3wjf39rhhjz0-4">
          <mxGeometry relative="1" as="geometry" />
        </mxCell>
        <mxCell id="hEQg4mZG3wjf39rhhjz0-1" style="edgeStyle=orthogonalEdgeStyle;rounded=0;orthogonalLoop=1;jettySize=auto;html=1;exitX=0.5;exitY=1;exitDx=0;exitDy=0;entryX=0.5;entryY=1;entryDx=0;entryDy=0;" edge="1" parent="IR0gkQAS8w7b89UPamRY-1" source="hEQg4mZG3wjf39rhhjz0-2" target="hEQg4mZG3wjf39rhhjz0-36">
          <mxGeometry relative="1" as="geometry" />
        </mxCell>
        <mxCell id="hEQg4mZG3wjf39rhhjz0-2" value="用户" style="rounded=1;whiteSpace=wrap;html=1;fontSize=12;glass=0;strokeWidth=1;shadow=0;" vertex="1" parent="IR0gkQAS8w7b89UPamRY-1">
          <mxGeometry x="30" y="110" width="120" height="40" as="geometry" />
        </mxCell>
        <mxCell id="hEQg4mZG3wjf39rhhjz0-3" style="edgeStyle=orthogonalEdgeStyle;rounded=0;orthogonalLoop=1;jettySize=auto;html=1;exitX=1;exitY=0.5;exitDx=0;exitDy=0;entryX=0;entryY=0.5;entryDx=0;entryDy=0;" edge="1" parent="IR0gkQAS8w7b89UPamRY-1" source="hEQg4mZG3wjf39rhhjz0-4" target="hEQg4mZG3wjf39rhhjz0-32">
          <mxGeometry relative="1" as="geometry" />
        </mxCell>
        <mxCell id="hEQg4mZG3wjf39rhhjz0-4" value="进入" style="rhombus;whiteSpace=wrap;html=1;shadow=0;fontFamily=Helvetica;fontSize=12;align=center;strokeWidth=1;spacing=6;spacingTop=-4;" vertex="1" parent="IR0gkQAS8w7b89UPamRY-1">
          <mxGeometry x="190" y="95" width="100" height="70" as="geometry" />
        </mxCell>
        <mxCell id="hEQg4mZG3wjf39rhhjz0-5" style="edgeStyle=orthogonalEdgeStyle;rounded=0;orthogonalLoop=1;jettySize=auto;html=1;" edge="1" parent="IR0gkQAS8w7b89UPamRY-1" target="hEQg4mZG3wjf39rhhjz0-16">
          <mxGeometry relative="1" as="geometry">
            <mxPoint x="290" y="130" as="sourcePoint" />
          </mxGeometry>
        </mxCell>
        <mxCell id="hEQg4mZG3wjf39rhhjz0-6" style="edgeStyle=orthogonalEdgeStyle;rounded=0;orthogonalLoop=1;jettySize=auto;html=1;entryX=0;entryY=0.5;entryDx=0;entryDy=0;" edge="1" parent="IR0gkQAS8w7b89UPamRY-1" target="hEQg4mZG3wjf39rhhjz0-18">
          <mxGeometry relative="1" as="geometry">
            <mxPoint x="290" y="130" as="sourcePoint" />
          </mxGeometry>
        </mxCell>
        <mxCell id="hEQg4mZG3wjf39rhhjz0-7" style="edgeStyle=orthogonalEdgeStyle;rounded=0;orthogonalLoop=1;jettySize=auto;html=1;entryX=0;entryY=0.5;entryDx=0;entryDy=0;" edge="1" parent="IR0gkQAS8w7b89UPamRY-1" target="hEQg4mZG3wjf39rhhjz0-10">
          <mxGeometry relative="1" as="geometry">
            <mxPoint x="290" y="130" as="sourcePoint" />
          </mxGeometry>
        </mxCell>
        <mxCell id="hEQg4mZG3wjf39rhhjz0-8" style="edgeStyle=orthogonalEdgeStyle;rounded=0;orthogonalLoop=1;jettySize=auto;html=1;entryX=0;entryY=0.5;entryDx=0;entryDy=0;" edge="1" parent="IR0gkQAS8w7b89UPamRY-1" target="hEQg4mZG3wjf39rhhjz0-20">
          <mxGeometry relative="1" as="geometry">
            <mxPoint x="290" y="130" as="sourcePoint" />
          </mxGeometry>
        </mxCell>
        <mxCell id="hEQg4mZG3wjf39rhhjz0-9" style="edgeStyle=orthogonalEdgeStyle;rounded=0;orthogonalLoop=1;jettySize=auto;html=1;exitX=1;exitY=0.5;exitDx=0;exitDy=0;" edge="1" parent="IR0gkQAS8w7b89UPamRY-1" source="hEQg4mZG3wjf39rhhjz0-10" target="hEQg4mZG3wjf39rhhjz0-30">
          <mxGeometry relative="1" as="geometry" />
        </mxCell>
        <mxCell id="hEQg4mZG3wjf39rhhjz0-10" value="关注" style="rhombus;whiteSpace=wrap;html=1;shadow=0;fontFamily=Helvetica;fontSize=12;align=center;strokeWidth=1;spacing=6;spacingTop=-4;" vertex="1" parent="IR0gkQAS8w7b89UPamRY-1">
          <mxGeometry x="330" y="60" width="90" height="40" as="geometry" />
        </mxCell>
        <mxCell id="hEQg4mZG3wjf39rhhjz0-11" style="edgeStyle=orthogonalEdgeStyle;rounded=0;orthogonalLoop=1;jettySize=auto;html=1;exitX=1;exitY=0.5;exitDx=0;exitDy=0;entryX=0;entryY=0.5;entryDx=0;entryDy=0;" edge="1" parent="IR0gkQAS8w7b89UPamRY-1" source="hEQg4mZG3wjf39rhhjz0-12" target="hEQg4mZG3wjf39rhhjz0-42">
          <mxGeometry relative="1" as="geometry" />
        </mxCell>
        <mxCell id="hEQg4mZG3wjf39rhhjz0-12" value="主播" style="rounded=1;whiteSpace=wrap;html=1;fontSize=12;glass=0;strokeWidth=1;shadow=0;" vertex="1" parent="IR0gkQAS8w7b89UPamRY-1">
          <mxGeometry x="30" y="530" width="110" height="40" as="geometry" />
        </mxCell>
        <mxCell id="hEQg4mZG3wjf39rhhjz0-13" style="edgeStyle=orthogonalEdgeStyle;rounded=0;orthogonalLoop=1;jettySize=auto;html=1;exitX=1;exitY=0.5;exitDx=0;exitDy=0;entryX=0;entryY=0.5;entryDx=0;entryDy=0;" edge="1" parent="IR0gkQAS8w7b89UPamRY-1" source="hEQg4mZG3wjf39rhhjz0-14" target="hEQg4mZG3wjf39rhhjz0-36">
          <mxGeometry relative="1" as="geometry" />
        </mxCell>
        <mxCell id="hEQg4mZG3wjf39rhhjz0-14" value="宝贝口袋" style="rounded=1;whiteSpace=wrap;html=1;fontSize=12;glass=0;strokeWidth=1;shadow=0;" vertex="1" parent="IR0gkQAS8w7b89UPamRY-1">
          <mxGeometry x="470" y="300" width="60" height="40" as="geometry" />
        </mxCell>
        <mxCell id="hEQg4mZG3wjf39rhhjz0-15" style="edgeStyle=orthogonalEdgeStyle;rounded=0;orthogonalLoop=1;jettySize=auto;html=1;exitX=1;exitY=0.5;exitDx=0;exitDy=0;entryX=0;entryY=0.5;entryDx=0;entryDy=0;" edge="1" parent="IR0gkQAS8w7b89UPamRY-1" source="hEQg4mZG3wjf39rhhjz0-16" target="hEQg4mZG3wjf39rhhjz0-30">
          <mxGeometry relative="1" as="geometry" />
        </mxCell>
        <mxCell id="hEQg4mZG3wjf39rhhjz0-16" value="点赞" style="rhombus;whiteSpace=wrap;html=1;shadow=0;fontFamily=Helvetica;fontSize=12;align=center;strokeWidth=1;spacing=6;spacingTop=-4;" vertex="1" parent="IR0gkQAS8w7b89UPamRY-1">
          <mxGeometry x="330" y="110" width="90" height="40" as="geometry" />
        </mxCell>
        <mxCell id="hEQg4mZG3wjf39rhhjz0-17" style="edgeStyle=orthogonalEdgeStyle;rounded=0;orthogonalLoop=1;jettySize=auto;html=1;exitX=1;exitY=0.5;exitDx=0;exitDy=0;entryX=0.5;entryY=1;entryDx=0;entryDy=0;" edge="1" parent="IR0gkQAS8w7b89UPamRY-1" source="hEQg4mZG3wjf39rhhjz0-18" target="hEQg4mZG3wjf39rhhjz0-30">
          <mxGeometry relative="1" as="geometry" />
        </mxCell>
        <mxCell id="hEQg4mZG3wjf39rhhjz0-18" value="弹幕" style="rhombus;whiteSpace=wrap;html=1;shadow=0;fontFamily=Helvetica;fontSize=12;align=center;strokeWidth=1;spacing=6;spacingTop=-4;" vertex="1" parent="IR0gkQAS8w7b89UPamRY-1">
          <mxGeometry x="330" y="160" width="90" height="40" as="geometry" />
        </mxCell>
        <mxCell id="hEQg4mZG3wjf39rhhjz0-19" style="edgeStyle=orthogonalEdgeStyle;rounded=0;orthogonalLoop=1;jettySize=auto;html=1;entryX=0;entryY=0.5;entryDx=0;entryDy=0;" edge="1" parent="IR0gkQAS8w7b89UPamRY-1" source="hEQg4mZG3wjf39rhhjz0-20" target="hEQg4mZG3wjf39rhhjz0-29">
          <mxGeometry relative="1" as="geometry" />
        </mxCell>
        <mxCell id="hEQg4mZG3wjf39rhhjz0-20" value="领取" style="rhombus;whiteSpace=wrap;html=1;shadow=0;fontFamily=Helvetica;fontSize=12;align=center;strokeWidth=1;spacing=6;spacingTop=-4;" vertex="1" parent="IR0gkQAS8w7b89UPamRY-1">
          <mxGeometry x="330" y="230" width="90" height="40" as="geometry" />
        </mxCell>
        <mxCell id="hEQg4mZG3wjf39rhhjz0-21" style="edgeStyle=orthogonalEdgeStyle;rounded=0;orthogonalLoop=1;jettySize=auto;html=1;exitX=1;exitY=0.5;exitDx=0;exitDy=0;entryX=0.111;entryY=0.5;entryDx=0;entryDy=0;entryPerimeter=0;" edge="1" parent="IR0gkQAS8w7b89UPamRY-1" source="hEQg4mZG3wjf39rhhjz0-23" target="hEQg4mZG3wjf39rhhjz0-38">
          <mxGeometry relative="1" as="geometry" />
        </mxCell>
        <mxCell id="hEQg4mZG3wjf39rhhjz0-22" style="edgeStyle=orthogonalEdgeStyle;rounded=0;orthogonalLoop=1;jettySize=auto;html=1;exitX=0.5;exitY=0;exitDx=0;exitDy=0;entryX=0.5;entryY=0;entryDx=0;entryDy=0;" edge="1" parent="IR0gkQAS8w7b89UPamRY-1" source="hEQg4mZG3wjf39rhhjz0-23" target="hEQg4mZG3wjf39rhhjz0-27">
          <mxGeometry relative="1" as="geometry" />
        </mxCell>
        <mxCell id="hEQg4mZG3wjf39rhhjz0-23" value="商品" style="rounded=1;whiteSpace=wrap;html=1;fontSize=12;glass=0;strokeWidth=1;shadow=0;" vertex="1" parent="IR0gkQAS8w7b89UPamRY-1">
          <mxGeometry x="700" y="110" width="60" height="40" as="geometry" />
        </mxCell>
        <mxCell id="hEQg4mZG3wjf39rhhjz0-24" style="edgeStyle=orthogonalEdgeStyle;rounded=0;orthogonalLoop=1;jettySize=auto;html=1;exitX=1;exitY=0.5;exitDx=0;exitDy=0;entryX=0;entryY=0.5;entryDx=0;entryDy=0;" edge="1" parent="IR0gkQAS8w7b89UPamRY-1" source="hEQg4mZG3wjf39rhhjz0-25" target="hEQg4mZG3wjf39rhhjz0-27">
          <mxGeometry relative="1" as="geometry" />
        </mxCell>
        <mxCell id="hEQg4mZG3wjf39rhhjz0-25" value="购物车" style="rounded=1;whiteSpace=wrap;html=1;fontSize=12;glass=0;strokeWidth=1;shadow=0;" vertex="1" parent="IR0gkQAS8w7b89UPamRY-1">
          <mxGeometry x="940" y="110" width="60" height="40" as="geometry" />
        </mxCell>
        <mxCell id="hEQg4mZG3wjf39rhhjz0-26" style="edgeStyle=orthogonalEdgeStyle;rounded=0;orthogonalLoop=1;jettySize=auto;html=1;exitX=1;exitY=0.5;exitDx=0;exitDy=0;entryX=0;entryY=0.5;entryDx=0;entryDy=0;" edge="1" parent="IR0gkQAS8w7b89UPamRY-1" source="hEQg4mZG3wjf39rhhjz0-27" target="hEQg4mZG3wjf39rhhjz0-33">
          <mxGeometry relative="1" as="geometry" />
        </mxCell>
        <mxCell id="hEQg4mZG3wjf39rhhjz0-27" value="结算" style="rhombus;whiteSpace=wrap;html=1;shadow=0;fontFamily=Helvetica;fontSize=12;align=center;strokeWidth=1;spacing=6;spacingTop=-4;" vertex="1" parent="IR0gkQAS8w7b89UPamRY-1">
          <mxGeometry x="1040" y="110" width="90" height="40" as="geometry" />
        </mxCell>
        <mxCell id="hEQg4mZG3wjf39rhhjz0-28" style="edgeStyle=orthogonalEdgeStyle;rounded=0;orthogonalLoop=1;jettySize=auto;html=1;exitX=1;exitY=0.5;exitDx=0;exitDy=0;" edge="1" parent="IR0gkQAS8w7b89UPamRY-1" source="hEQg4mZG3wjf39rhhjz0-29" target="hEQg4mZG3wjf39rhhjz0-40">
          <mxGeometry relative="1" as="geometry" />
        </mxCell>
        <mxCell id="hEQg4mZG3wjf39rhhjz0-29" value="权益" style="rounded=1;whiteSpace=wrap;html=1;fontSize=12;glass=0;strokeWidth=1;shadow=0;" vertex="1" parent="IR0gkQAS8w7b89UPamRY-1">
          <mxGeometry x="470" y="230" width="60" height="40" as="geometry" />
        </mxCell>
        <mxCell id="hEQg4mZG3wjf39rhhjz0-30" value="直播间" style="rounded=1;whiteSpace=wrap;html=1;fontSize=12;glass=0;strokeWidth=1;shadow=0;" vertex="1" parent="IR0gkQAS8w7b89UPamRY-1">
          <mxGeometry x="490" y="110" width="120" height="40" as="geometry" />
        </mxCell>
        <mxCell id="hEQg4mZG3wjf39rhhjz0-31" style="edgeStyle=orthogonalEdgeStyle;rounded=0;orthogonalLoop=1;jettySize=auto;html=1;entryX=0;entryY=0.5;entryDx=0;entryDy=0;" edge="1" parent="IR0gkQAS8w7b89UPamRY-1" source="hEQg4mZG3wjf39rhhjz0-32" target="hEQg4mZG3wjf39rhhjz0-14">
          <mxGeometry relative="1" as="geometry" />
        </mxCell>
        <mxCell id="hEQg4mZG3wjf39rhhjz0-32" value="拉起" style="rhombus;whiteSpace=wrap;html=1;shadow=0;fontFamily=Helvetica;fontSize=12;align=center;strokeWidth=1;spacing=6;spacingTop=-4;" vertex="1" parent="IR0gkQAS8w7b89UPamRY-1">
          <mxGeometry x="330" y="300" width="90" height="40" as="geometry" />
        </mxCell>
        <mxCell id="hEQg4mZG3wjf39rhhjz0-33" value="订单" style="rounded=1;whiteSpace=wrap;html=1;fontSize=12;glass=0;strokeWidth=1;shadow=0;" vertex="1" parent="IR0gkQAS8w7b89UPamRY-1">
          <mxGeometry x="1170" y="110" width="60" height="40" as="geometry" />
        </mxCell>
        <mxCell id="hEQg4mZG3wjf39rhhjz0-34" value="场次素材" style="rounded=1;whiteSpace=wrap;html=1;fontSize=12;glass=0;strokeWidth=1;shadow=0;" vertex="1" parent="IR0gkQAS8w7b89UPamRY-1">
          <mxGeometry x="380" y="530" width="110" height="40" as="geometry" />
        </mxCell>
        <mxCell id="hEQg4mZG3wjf39rhhjz0-35" style="edgeStyle=orthogonalEdgeStyle;rounded=0;orthogonalLoop=1;jettySize=auto;html=1;exitX=1;exitY=0.5;exitDx=0;exitDy=0;entryX=0.5;entryY=1;entryDx=0;entryDy=0;" edge="1" parent="IR0gkQAS8w7b89UPamRY-1" source="hEQg4mZG3wjf39rhhjz0-36" target="hEQg4mZG3wjf39rhhjz0-23">
          <mxGeometry relative="1" as="geometry" />
        </mxCell>
        <mxCell id="hEQg4mZG3wjf39rhhjz0-36" value="浏览" style="rhombus;whiteSpace=wrap;html=1;shadow=0;fontFamily=Helvetica;fontSize=12;align=center;strokeWidth=1;spacing=6;spacingTop=-4;" vertex="1" parent="IR0gkQAS8w7b89UPamRY-1">
          <mxGeometry x="610" y="300" width="90" height="40" as="geometry" />
        </mxCell>
        <mxCell id="hEQg4mZG3wjf39rhhjz0-37" style="edgeStyle=orthogonalEdgeStyle;rounded=0;orthogonalLoop=1;jettySize=auto;html=1;exitX=1;exitY=0.5;exitDx=0;exitDy=0;entryX=0;entryY=0.5;entryDx=0;entryDy=0;" edge="1" parent="IR0gkQAS8w7b89UPamRY-1" source="hEQg4mZG3wjf39rhhjz0-38" target="hEQg4mZG3wjf39rhhjz0-25">
          <mxGeometry relative="1" as="geometry" />
        </mxCell>
        <mxCell id="hEQg4mZG3wjf39rhhjz0-38" value="加购" style="rhombus;whiteSpace=wrap;html=1;shadow=0;fontFamily=Helvetica;fontSize=12;align=center;strokeWidth=1;spacing=6;spacingTop=-4;" vertex="1" parent="IR0gkQAS8w7b89UPamRY-1">
          <mxGeometry x="800" y="110" width="90" height="40" as="geometry" />
        </mxCell>
        <mxCell id="hEQg4mZG3wjf39rhhjz0-39" style="edgeStyle=orthogonalEdgeStyle;rounded=0;orthogonalLoop=1;jettySize=auto;html=1;exitX=1;exitY=0.5;exitDx=0;exitDy=0;entryX=0.5;entryY=1;entryDx=0;entryDy=0;" edge="1" parent="IR0gkQAS8w7b89UPamRY-1" source="hEQg4mZG3wjf39rhhjz0-40" target="hEQg4mZG3wjf39rhhjz0-33">
          <mxGeometry relative="1" as="geometry" />
        </mxCell>
        <mxCell id="hEQg4mZG3wjf39rhhjz0-40" value="核销" style="rhombus;whiteSpace=wrap;html=1;shadow=0;fontFamily=Helvetica;fontSize=12;align=center;strokeWidth=1;spacing=6;spacingTop=-4;" vertex="1" parent="IR0gkQAS8w7b89UPamRY-1">
          <mxGeometry x="870" y="230" width="90" height="40" as="geometry" />
        </mxCell>
        <mxCell id="hEQg4mZG3wjf39rhhjz0-41" style="edgeStyle=orthogonalEdgeStyle;rounded=0;orthogonalLoop=1;jettySize=auto;html=1;exitX=1;exitY=0.5;exitDx=0;exitDy=0;entryX=0;entryY=0.5;entryDx=0;entryDy=0;" edge="1" parent="IR0gkQAS8w7b89UPamRY-1" source="hEQg4mZG3wjf39rhhjz0-42" target="hEQg4mZG3wjf39rhhjz0-34">
          <mxGeometry relative="1" as="geometry" />
        </mxCell>
        <mxCell id="hEQg4mZG3wjf39rhhjz0-42" value="发布" style="rhombus;whiteSpace=wrap;html=1;shadow=0;fontFamily=Helvetica;fontSize=12;align=center;strokeWidth=1;spacing=6;spacingTop=-4;" vertex="1" parent="IR0gkQAS8w7b89UPamRY-1">
          <mxGeometry x="210" y="530" width="90" height="40" as="geometry" />
        </mxCell>
        <mxCell id="hEQg4mZG3wjf39rhhjz0-43" value="选品" style="rhombus;whiteSpace=wrap;html=1;shadow=0;fontFamily=Helvetica;fontSize=12;align=center;strokeWidth=1;spacing=6;spacingTop=-4;" vertex="1" parent="IR0gkQAS8w7b89UPamRY-1">
          <mxGeometry x="210" y="610" width="90" height="40" as="geometry" />
        </mxCell>
        <mxCell id="hEQg4mZG3wjf39rhhjz0-44" value="发货" style="rhombus;whiteSpace=wrap;html=1;shadow=0;fontFamily=Helvetica;fontSize=12;align=center;strokeWidth=1;spacing=6;spacingTop=-4;" vertex="1" parent="IR0gkQAS8w7b89UPamRY-1">
          <mxGeometry x="210" y="460" width="90" height="40" as="geometry" />
        </mxCell>
        <mxCell id="hEQg4mZG3wjf39rhhjz0-45" value="结算" style="rhombus;whiteSpace=wrap;html=1;shadow=0;fontFamily=Helvetica;fontSize=12;align=center;strokeWidth=1;spacing=6;spacingTop=-4;" vertex="1" parent="IR0gkQAS8w7b89UPamRY-1">
          <mxGeometry x="210" y="680" width="90" height="40" as="geometry" />
        </mxCell>
      </root>
    </mxGraphModel>
  </diagram>
</mxfile>
